# Blender v2.80 (sub 75) OBJ File: ''
# www.blender.org
mtllib lifeschool.mtl
o Circle
v 0.000000 0.000000 -1.000000
v -0.195090 0.000000 -0.980785
v -0.382683 0.000000 -0.923880
v -0.555570 0.000000 -0.831470
v -0.707107 0.000000 -0.707107
v -0.831470 0.000000 -0.555570
v -0.923880 0.000000 -0.382683
v -0.980785 0.000000 -0.195090
v -1.000000 0.000000 -0.000000
v -0.980785 0.000000 0.195090
v -0.923880 0.000000 0.382683
v -0.831470 0.000000 0.555570
v -0.707107 0.000000 0.707107
v -0.555570 0.000000 0.831470
v -0.382683 0.000000 0.923880
v -0.195090 0.000000 0.980785
v 0.000000 0.000000 1.000000
v 0.195091 0.000000 0.980785
v 0.382684 0.000000 0.923879
v 0.555571 0.000000 0.831469
v 0.707107 0.000000 0.707106
v 0.831470 0.000000 0.555570
v 0.923880 0.000000 0.382683
v 0.980785 0.000000 0.195089
v 1.000000 0.000000 -0.000001
v 0.980785 0.000000 -0.195091
v 0.923879 0.000000 -0.382684
v 0.831469 0.000000 -0.555571
v 0.707106 0.000000 -0.707108
v 0.555569 0.000000 -0.831470
v 0.382682 0.000000 -0.923880
v 0.195089 0.000000 -0.980786
v 0.000000 -0.010000 -1.000000
v -0.195090 -0.010000 -0.980785
v -0.382683 -0.010000 -0.923880
v -0.555570 -0.010000 -0.831470
v -0.707107 -0.010000 -0.707107
v -0.831470 -0.010000 -0.555570
v -0.923880 -0.010000 -0.382683
v -0.980785 -0.010000 -0.195090
v -1.000000 -0.010000 -0.000000
v -0.980785 -0.010000 0.195090
v -0.923880 -0.010000 0.382683
v -0.831470 -0.010000 0.555570
v -0.707107 -0.010000 0.707107
v -0.555570 -0.010000 0.831470
v -0.382683 -0.010000 0.923880
v -0.195090 -0.010000 0.980785
v 0.000000 -0.010000 1.000000
v 0.195091 -0.010000 0.980785
v 0.382684 -0.010000 0.923879
v 0.555571 -0.010000 0.831469
v 0.707107 -0.010000 0.707106
v 0.831470 -0.010000 0.555570
v 0.923880 -0.010000 0.382683
v 0.980785 -0.010000 0.195089
v 1.000000 -0.010000 -0.000001
v 0.980785 -0.010000 -0.195091
v 0.923879 -0.010000 -0.382684
v 0.831469 -0.010000 -0.555571
v 0.707106 -0.010000 -0.707108
v 0.555569 -0.010000 -0.831470
v 0.382682 -0.010000 -0.923880
v 0.195089 -0.010000 -0.980786
vt 0.999900 0.450765
vt 0.980689 0.354185
vt 0.943006 0.263209
vt 0.888298 0.181333
vt 0.818669 0.111703
vt 0.736792 0.056995
vt 0.645816 0.019311
vt 0.549236 0.000100
vt 0.450763 0.000100
vt 0.354185 0.019311
vt 0.263209 0.056994
vt 0.181332 0.111702
vt 0.111703 0.181332
vt 0.056994 0.263209
vt 0.019311 0.354185
vt 0.000100 0.450764
vt 0.000100 0.549237
vt 0.019311 0.645815
vt 0.056994 0.736791
vt 0.111702 0.818668
vt 0.181333 0.888298
vt 0.263209 0.943006
vt 0.354185 0.980689
vt 0.450764 0.999900
vt 0.549236 0.999900
vt 0.645815 0.980689
vt 0.736792 0.943006
vt 0.818668 0.888298
vt 0.888298 0.818667
vt 0.943006 0.736792
vt 0.980689 0.645816
vt 0.999900 0.549236
vt 0.999900 0.450765
vt 0.999900 0.549236
vt 0.980689 0.645816
vt 0.943006 0.736792
vt 0.888298 0.818667
vt 0.818668 0.888298
vt 0.736792 0.943006
vt 0.645815 0.980689
vt 0.549236 0.999900
vt 0.450764 0.999900
vt 0.354185 0.980689
vt 0.263209 0.943006
vt 0.181333 0.888298
vt 0.111702 0.818668
vt 0.056994 0.736791
vt 0.019311 0.645815
vt 0.000100 0.549237
vt 0.000100 0.450764
vt 0.019311 0.354185
vt 0.056994 0.263209
vt 0.111703 0.181332
vt 0.181332 0.111702
vt 0.263209 0.056994
vt 0.354185 0.019311
vt 0.450763 0.000100
vt 0.549236 0.000100
vt 0.645816 0.019311
vt 0.736792 0.056995
vt 0.818669 0.111703
vt 0.888298 0.181333
vt 0.943006 0.263209
vt 0.980689 0.354185
vn 0.0000 -1.0000 0.0000
vn 0.0000 1.0000 0.0000
vn 0.9569 0.0000 0.2903
vn -0.7730 0.0000 -0.6344
vn 0.9952 0.0000 0.0980
vn -0.8819 0.0000 -0.4714
vn 0.9952 0.0000 -0.0980
vn -0.9569 0.0000 -0.2903
vn 0.9569 0.0000 -0.2903
vn -0.9952 0.0000 -0.0980
vn 0.8819 0.0000 -0.4714
vn -0.9952 0.0000 0.0980
vn 0.7730 0.0000 -0.6344
vn -0.9569 0.0000 0.2903
vn 0.6344 0.0000 -0.7730
vn -0.8819 0.0000 0.4714
vn 0.4714 0.0000 -0.8819
vn 0.0980 0.0000 0.9952
vn -0.7730 0.0000 0.6344
vn 0.2903 0.0000 -0.9569
vn 0.2903 0.0000 0.9569
vn -0.6344 0.0000 0.7730
vn 0.0980 0.0000 -0.9952
vn 0.4714 0.0000 0.8819
vn -0.4714 0.0000 0.8819
vn -0.0980 0.0000 -0.9952
vn 0.6344 0.0000 0.7730
vn -0.2903 0.0000 0.9569
vn -0.2903 0.0000 -0.9569
vn 0.7730 0.0000 0.6344
vn -0.0980 0.0000 0.9952
vn -0.4714 0.0000 -0.8819
vn 0.8819 0.0000 0.4714
vn -0.6344 0.0000 -0.7730
usemtl None
s off
f 2/1/1 1/2/1 32/3/1 31/4/1 30/5/1 29/6/1 28/7/1 27/8/1 26/9/1 25/10/1 24/11/1 23/12/1 22/13/1 21/14/1 20/15/1 19/16/1 18/17/1 17/18/1 16/19/1 15/20/1 14/21/1 13/22/1 12/23/1 11/24/1 10/25/1 9/26/1 8/27/1 7/28/1 6/29/1 5/30/1 4/31/1 3/32/1
f 34/33/2 35/34/2 36/35/2 37/36/2 38/37/2 39/38/2 40/39/2 41/40/2 42/41/2 43/42/2 44/43/2 45/44/2 46/45/2 47/46/2 48/47/2 49/48/2 50/49/2 51/50/2 52/51/2 53/52/2 54/53/2 55/54/2 56/55/2 57/56/2 58/57/2 59/58/2 60/59/2 61/60/2 62/61/2 63/62/2 64/63/2 33/64/2
f 7/28/3 8/27/3 40/39/3 39/38/3
f 21/14/4 22/13/4 54/53/4 53/52/4
f 8/27/5 9/26/5 41/40/5 40/39/5
f 22/13/6 23/12/6 55/54/6 54/53/6
f 9/26/7 10/25/7 42/41/7 41/40/7
f 23/12/8 24/11/8 56/55/8 55/54/8
f 10/25/9 11/24/9 43/42/9 42/41/9
f 24/11/10 25/10/10 57/56/10 56/55/10
f 11/24/11 12/23/11 44/43/11 43/42/11
f 25/10/12 26/9/12 58/57/12 57/56/12
f 12/23/13 13/22/13 45/44/13 44/43/13
f 26/9/14 27/8/14 59/58/14 58/57/14
f 13/22/15 14/21/15 46/45/15 45/44/15
f 27/8/16 28/7/16 60/59/16 59/58/16
f 14/21/17 15/20/17 47/46/17 46/45/17
f 1/2/18 2/1/18 34/33/18 33/64/18
f 28/7/19 29/6/19 61/60/19 60/59/19
f 15/20/20 16/19/20 48/47/20 47/46/20
f 2/1/21 3/32/21 35/34/21 34/33/21
f 29/6/22 30/5/22 62/61/22 61/60/22
f 16/19/23 17/18/23 49/48/23 48/47/23
f 3/32/24 4/31/24 36/35/24 35/34/24
f 30/5/25 31/4/25 63/62/25 62/61/25
f 17/18/26 18/17/26 50/49/26 49/48/26
f 4/31/27 5/30/27 37/36/27 36/35/27
f 31/4/28 32/3/28 64/63/28 63/62/28
f 18/17/29 19/16/29 51/50/29 50/49/29
f 5/30/30 6/29/30 38/37/30 37/36/30
f 32/3/31 1/2/31 33/64/31 64/63/31
f 19/16/32 20/15/32 52/51/32 51/50/32
f 6/29/33 7/28/33 39/38/33 38/37/33
f 20/15/34 21/14/34 53/52/34 52/51/34
